# xmcd
#
# Track frame offsets:
# 150
# 17249
# 37407
# 65945
#
# Disc length: 1118 seconds
#
# Revision: 0
# Processed by: cddbd v1.5.2PL0 Copyright (c) Steve Scherf et al.
# Submitted via: Audion 3.0.2 (http://www.panic.com/audion/)
#
DISCID=3c045c04
DTITLE=Triad - People
DYEAR=1900
DGENRE=
TTITLE0=New Home
TTITLE1=Blues Is Changing
TTITLE2=Rosco's Rhythm
TTITLE3=Rockin' With Ronnie
EXTD=
EXTT0=
EXTT1=
EXTT2=
EXTT3=
PLAYORDER=
